<!--?xml version="1.0" encoding="utf-8"?-->
<!-- Generator: Adobe Illustrator 16.0.0, SVG Export Plug-In . SVG Version: 6.00 Build 0)  -->

<svg version="1.1" id="圖層_1" xmlns="http://www.w3.org/2000/svg" xmlns:xlink="http://www.w3.org/1999/xlink" x="0px" y="0px" width="413.113px" height="61.068px" viewBox="0 0 413.113 61.068" enable-background="new 0 0 413.113 61.068" xml:space="preserve" style="">
<path opacity="0.8" fill-rule="evenodd" clip-rule="evenodd" fill="none" stroke="#FFFFFF" stroke-width="2" stroke-miterlimit="10" d="
	M293.972,20.758c2.357-1.579,4.686-3.212,7.539-3.817c1.117-0.237,2.222-0.239,3.319,0.076c1.475,0.424,2.4,1.368,2.692,2.899
	c0.057,0.301-0.012,0.649,0.342,0.906c1.901-1.588,3.95-2.947,6.394-3.609c1.05-0.284,2.104-0.449,3.192-0.442
	c4.317,0.026,6.459,2.57,5.504,6.797c-0.641,2.838-1.552,5.616-2.351,8.417c-0.308,1.081-0.524,2.183-0.563,3.3
	c-0.06,1.749,0.959,2.43,2.444,1.527c2.953-1.795,4.88-4.457,5.873-7.745c1.098-3.63,2.116-7.285,3.108-10.945
	c0.232-0.858,0.67-1.307,1.518-1.436c2.376-0.362,4.698-0.215,6.93,0.743c0.888,0.381,1.184,0.907,0.873,1.971
	c-1.374,4.712-3.045,9.341-4.063,14.155c-0.115,0.543-0.175,1.106-0.187,1.661c-0.041,2.03,0.679,2.526,2.478,1.551
	c3.005-1.629,5.081-4.113,6.113-7.379c1.178-3.73,2.285-7.484,3.362-11.244c0.244-0.852,0.673-1.274,1.527-1.42
	c2.125-0.361,4.221-0.371,6.247,0.457c1.419,0.579,1.538,0.893,1.071,2.344c-0.132,0.409-0.25,0.822-0.46,1.517
	c1.058-0.72,1.872-1.313,2.725-1.847c2.116-1.324,4.293-2.484,6.903-2.422c3.453,0.082,5.372,2.289,4.972,5.735
	c-0.336,2.88-1.404,5.567-2.178,8.332c-0.431,1.537-0.938,3.061-0.861,4.692c0.072,1.555,0.762,2.005,2.195,1.404
	c1.251-0.524,2.182-1.468,3.041-2.476c1.438-1.685,2.581-3.564,3.399-5.617c3.056-7.661,9.619-12.144,17.871-12.063
	c1.069,0.01,1.519-0.255,1.803-1.308c1.136-4.2,2.403-8.364,3.553-12.561c0.239-0.876,0.701-1.328,1.526-1.424
	c2.242-0.263,4.483-0.245,6.62,0.574c1.382,0.529,1.716,0.75,1.227,2.395c-2.376,7.997-5.082,15.898-7.021,24.023
	c-0.455,1.907-0.816,3.831-0.99,5.782c-0.088,0.981-0.286,2.19,0.645,2.776c1.009,0.636,1.877-0.276,2.648-0.877
	c1.862-1.45,3.235-3.318,4.289-5.405c0.462-0.917,1.025-1.026,1.818-0.556c0.747,0.443,1.438,0.862,0.802,1.961
	c-1.943,3.357-4.178,6.448-7.506,8.58c-1.886,1.208-3.937,1.948-6.204,1.947c-3.057-0.001-4.969-2.016-5.166-5.421
	c-0.021-0.357-0.003-0.716-0.003-1.377c-0.578,0.859-0.988,1.506-1.436,2.126c-2.56,3.552-5.951,5.239-10.362,4.522
	c-2.889-0.469-4.602-2.216-5.254-5.042c-0.042-0.184,0.002-0.406-0.36-0.602c-0.476,0.499-0.979,1.041-1.498,1.567
	c-2.794,2.838-6.071,4.496-10.168,4.216c-3.919-0.267-5.912-2.708-5.123-6.555c0.689-3.361,1.59-6.679,2.357-10.025
	c0.189-0.826,0.677-1.864-0.158-2.461c-0.801-0.574-1.771-0.069-2.607,0.34c-1.624,0.794-2.808,1.819-3.295,3.773
	c-1.063,4.26-2.177,8.509-3.153,12.79c-0.265,1.158-0.844,1.713-1.941,1.934c-2.021,0.408-4.045,0.512-6.058,0.025
	c-1.808-0.438-1.98-0.772-1.585-2.574c0.084-0.384,0.165-0.769,0.277-1.291c-0.629,0.161-0.934,0.583-1.307,0.88
	c-3.017,2.4-6.396,3.601-10.269,2.995c-2.812-0.439-3.804-1.461-4.407-4.263c-0.023-0.108-0.109-0.202-0.199-0.36
	c-0.886,0.771-1.706,1.575-2.614,2.261c-2.815,2.125-5.985,3.024-9.479,2.372c-2.942-0.549-4.371-2.573-4.03-5.543
	c0.408-3.545,1.594-6.92,2.328-10.396c0.074-0.351,0.143-0.705,0.234-1.051c0.181-0.68,0.3-1.385-0.275-1.91
	c-0.648-0.592-1.44-0.435-2.148-0.115c-1.634,0.74-2.969,1.67-3.398,3.667c-0.966,4.487-2.146,8.928-3.164,13.405
	c-0.248,1.09-0.775,1.672-1.845,1.873c-2.185,0.412-4.371,0.524-6.53-0.063c-1.377-0.375-1.579-0.799-1.251-2.172
	c1.159-4.854,2.331-9.705,3.494-14.557c0.166-0.693,0.505-1.5-0.154-2.019c-0.65-0.511-1.471-0.226-2.17,0.097
	c-1.749,0.807-3.082,1.85-3.608,3.953c-1.096,4.375-2.282,8.729-3.262,13.133c-0.168,0.754-0.535,1.216-1.259,1.431
	c-2.395,0.71-4.798,0.747-7.199,0.058c-1.046-0.3-1.443-0.91-1.134-2.071c1.968-7.368,3.956-14.729,6.205-22.018
	c0.271-0.878,0.722-1.354,1.609-1.513c2.048-0.367,4.062-0.274,6.023,0.43c1.528,0.549,1.687,0.934,1.192,2.493
	c-0.096,0.303-0.159,0.616-0.237,0.925c-0.034,0.125-0.131,0.331-0.091,0.362C293.837,21.043,293.877,20.829,293.972,20.758z
	 M384.732,34.655c0.047,0.942,0.101,1.852,1.037,2.312c0.909,0.446,1.623-0.14,2.277-0.647c0.499-0.387,0.937-0.87,1.341-1.36
	c2.858-3.466,3.921-7.713,5.148-11.888c0.167-0.567-0.144-0.591-0.561-0.569c-0.772,0.041-1.505,0.252-2.184,0.593
	C387.027,25.488,385.734,29.985,384.732,34.655z" class="ScDLPnzE_0"></path>
<path opacity="0.8" fill-rule="evenodd" clip-rule="evenodd" fill="none" stroke="#FFFFFF" stroke-width="2" stroke-miterlimit="10" d="
	M172.63,41.01c-0.154,0.557,2.625-0.91,5.085-3.839c1.628-1.936,2.898-4.112,4.146-6.302c0.465-0.815,0.568-1.741,0.835-2.615
	c2.438-8.007,10.042-12.702,18.239-11.245c5.555,0.988,8.689,5.492,7.834,11.115c-0.42,2.76-1.391,5.301-2.789,7.807
	c0.795,0.145,1.457,0.114,2.098-0.105c2.914-1.001,4.917-2.982,5.856-5.886c1.241-3.835,2.361-7.711,3.449-11.594
	c0.294-1.05,0.87-1.592,1.872-1.711c1.959-0.233,3.915-0.24,5.813,0.399c1.504,0.506,1.732,0.97,1.306,2.484
	c-1.409,4.995-2.846,9.982-3.924,15.063c-0.033,0.156-0.083,0.312-0.094,0.47c-0.04,0.636-0.197,1.368,0.443,1.758
	c0.671,0.409,1.333,0.034,1.878-0.387c2.266-1.747,3.658-4.143,4.569-6.763c1.312-3.769,2.439-7.603,3.57-11.431
	c0.263-0.891,0.691-1.4,1.581-1.542c2.169-0.345,4.3-0.258,6.36,0.583c1.033,0.421,1.4,1.021,1.066,2.238
	c-1.289,4.695-2.865,9.315-3.779,14.11c-0.149,0.781-0.237,1.584-0.248,2.379c-0.021,1.448,0.478,1.745,1.757,1.014
	c2.07-1.182,3.558-2.977,4.757-4.977c2.161-3.604,3.988-7.372,5.277-11.389c0.271-0.845,0.262-1.533-0.161-2.367
	c-1.555-3.064-0.59-6.141,2.255-7.396c1.216-0.536,2.503-0.715,3.652,0.132c1.159,0.854,1.39,2.129,1.104,3.449
	c-0.217,1,0.082,1.614,0.868,2.232c1.632,1.283,3.315,2.513,4.787,3.992c2.644,2.656,2.783,4.45,0.625,7.474
	c-1.416,1.984-2.858,3.961-3.513,6.367c-0.519,1.905,0.163,2.79,2.127,2.646c2.284-0.168,4.192-1.221,5.868-2.725
	c1.29-1.158,2.347-2.508,3.171-4.035c0.446-0.826,1.062-0.569,1.614-0.206c0.559,0.366,1.44,0.648,0.934,1.617
	c-2.699,5.154-6.344,9.219-12.33,10.506c-1.965,0.422-3.951,0.53-5.951,0.156c-3.969-0.741-5.92-3.662-5.081-7.631
	c0.7-3.318,2.508-6.111,4.226-8.946c1.086-1.792,0.905-2.965-0.622-4.332c-0.521-0.467-0.734-0.43-0.945,0.257
	c-1.051,3.411-2.503,6.661-4.256,9.758c-2.199,3.886-4.753,7.505-8.706,9.859c-1.144,0.681-2.371,1.127-3.708,1.285
	c-3.088,0.364-5.185-1.398-5.32-4.52c-0.029-0.678-0.004-1.358-0.004-2.255c-0.731,0.914-1.333,1.721-1.993,2.479
	c-2.852,3.275-6.417,4.777-10.772,4.264c-2.832-0.334-4.36-1.819-4.761-4.672c-0.11-0.783-0.239-1.089-1.06-0.513
	c-2.226,1.563-4.768,1.989-7.424,1.78c-0.881-0.069-1.578,0.121-2.328,0.627c-4.172,2.815-8.777,3.514-13.635,2.431
	c-3.098-0.691-5.266-2.56-6.229-5.911c-0.671,0.896-1.204,1.619-1.747,2.333c-2.197,2.888-4.903,5.144-8.279,6.528
	c-0.625,0.256-0.914,0.646-1.113,1.269c-0.729,2.282-1.502,4.551-2.539,6.718c-2.725,5.691-9.226,8.264-14.929,5.906
	c-3.76-1.555-4.965-4.974-3.119-8.914c1.35-2.88,3.902-4.217,6.741-5.161c1.86-0.619,3.779-1.005,5.693-1.408
	c0.344-0.072,0.732-0.034,0.897-0.461c0.669-1.739,1.388-3.462,1.914-5.446c-0.808,0.386-1.142,0.998-1.614,1.443
	c-2.85,2.688-6.172,3.944-10.086,3.264c-3.225-0.56-4.796-2.677-4.579-5.957c0.192-2.902,1.173-5.621,1.938-8.386
	c0.926-3.347,1.984-6.658,2.924-10.001c0.238-0.849,0.683-1.323,1.517-1.464c2.163-0.368,4.296-0.305,6.373,0.475
	c0.984,0.37,1.42,0.903,1.06,2.098c-1.421,4.702-2.571,9.479-3.709,14.257c-0.147,0.619-0.234,1.258-0.282,1.893
	c-0.038,0.508-0.101,1.102,0.425,1.41c0.541,0.317,1.09,0.075,1.586-0.208c0.776-0.445,1.375-1.095,1.916-1.79
	c1.514-1.943,2.592-4.118,3.371-6.447c1.127-3.371,2.177-6.766,3.066-10.207c0.197-0.76,0.582-1.218,1.303-1.382
	c2.412-0.55,4.76-0.338,7.025,0.67c0.854,0.38,0.967,0.972,0.715,1.859C176.555,26.17,174.529,34.162,172.63,41.01 M199.307,25.962
	c0-0.16,0-0.319,0-0.479c-0.008-1.757-0.507-2.768-1.529-3.097c-1.041-0.336-2.216,0.248-3.214,1.595
	c-0.048,0.064-0.103,0.124-0.144,0.192c-1.968,3.331-3.033,6.939-3.093,10.798c-0.032,2.064,1.787,2.994,3.616,1.984
	c0.492-0.272,0.736-0.527,0.578-1.217c-0.368-1.599,0.422-2.989,1.928-3.533c0.473-0.17,0.729-0.375,0.864-0.847
	C198.821,29.591,199.279,27.818,199.307,25.962z M162.367,48.077c-1.887,0.54-3.441,1.261-4.613,2.643
	c-1.029,1.212-1.196,2.58-0.427,3.211c0.812,0.667,2.229,0.256,3.211-0.971C161.645,51.579,161.881,49.879,162.367,48.077z" class="ScDLPnzE_1"></path>
<path opacity="0.8" fill-rule="evenodd" clip-rule="evenodd" fill="none" stroke="#FFFFFF" stroke-width="2" stroke-miterlimit="10" d="
	M122.691,36.033c-1.274,1.976-2.418,3.704-4.17,4.898c-2.646,1.802-5.519,2.23-8.573,1.347c-2.141-0.619-3.41-2.131-4.046-4.218
	c-0.125-0.41-0.213-0.831-0.351-1.372c-1.209,1.107-2.223,2.281-3.47,3.202c-2.069,1.529-4.33,2.576-6.913,2.773
	c-2.934,0.224-4.612-1.246-4.843-4.193c-0.059-0.755-0.009-1.518-0.009-2.64c-0.598,0.893-1.006,1.536-1.447,2.156
	c-2.573,3.62-6.02,5.285-10.466,4.538c-2.935-0.493-4.819-2.178-5.421-5.167c-0.039-0.192-0.126-0.374-0.234-0.684
	c-1.066,0.94-1.931,1.984-3.037,2.75c-5.977,4.14-12.393,4.488-18.914,1.742c-4.396-1.851-6.326-6.391-5.514-11.402
	c1.567-9.676,10.607-14.163,18.911-12.432c2.84,0.592,5.036,2.25,5.601,5.266c0.62,3.307-0.761,5.986-3.356,7.96
	c-2.956,2.249-6.426,2.669-10.026,2.398c-0.494-0.037-1.183-0.385-1.431,0.072c-0.239,0.439,0.115,1.077,0.387,1.57
	c0.948,1.721,2.593,2.311,4.381,2.558c6.494,0.898,11.873-2.221,14.33-8.323c2.57-6.384,10.456-13.58,21.158-11.886
	c2.923,0.463,5.684,1.228,8.088,3.051c0.833,0.632,0.977,1.298,0.486,2.156c-0.277,0.484-0.553,0.977-0.897,1.413
	c-1.293,1.637-1.732,1.707-3.515,0.681c-2.541-1.461-5.297-2.111-8.187-1.717c-3.582,0.488-5.756,2.917-7.344,5.93
	c-0.937,1.779-1.444,3.718-1.666,5.722c-0.058,0.522-0.01,1.036,0.131,1.544c0.358,1.288,1.333,1.703,2.475,1.005
	c0.905-0.553,1.543-1.384,2.124-2.251c1.677-2.504,2.934-5.227,3.991-8.033c0.41-1.086,1.071-1.472,2.137-1.52
	c1.882-0.084,3.644,0.332,5.336,1.126c0.878,0.413,1.222,0.917,0.864,1.981c-0.686,2.039-1.329,4.105-1.61,6.255
	c-0.031,0.237-0.086,0.473-0.095,0.711c-0.079,2.069,0.973,2.76,2.775,1.722c3.06-1.762,5.109-4.436,6.465-7.642
	c2.606-6.161,6.839-10.432,13.554-11.899c1.571-0.343,3.162-0.521,4.761-0.403c0.868,0.064,1.147-0.273,1.365-1.058
	c1.186-4.269,2.461-8.514,3.642-12.784c0.237-0.858,0.668-1.352,1.506-1.447c2.325-0.263,4.626-0.204,6.852,0.639
	c1.06,0.401,1.428,0.991,1.064,2.211c-2.421,8.109-5.184,16.119-7.111,24.371c-0.508,2.178-0.998,4.369-0.917,6.63
	c0.07,1.988,0.916,2.428,2.593,1.313c2.152-1.43,3.658-3.445,4.85-5.692c0.461-0.87,0.877-1.397,1.916-0.779
	c1.148,0.683,1.306,1.043,0.667,2.179c-2.027,3.603-4.488,6.816-8.185,8.873c-1.703,0.947-3.535,1.48-5.5,1.454
	c-2.598-0.034-4.47-1.657-4.879-4.229C122.859,37.752,122.805,37.037,122.691,36.033z M114.557,34.454
	c0.073,1.131,0.083,2.062,1.035,2.509c0.906,0.425,1.621-0.128,2.281-0.641c0.825-0.641,1.468-1.457,2.069-2.311
	c2.296-3.266,3.279-7.059,4.373-10.81c0.2-0.688-0.137-0.749-0.667-0.686c-1.428,0.168-2.7,0.73-3.798,1.627
	C116.515,26.866,115.301,30.662,114.557,34.454z M61.293,24.08c0.041-1.235-0.636-1.762-1.832-1.409
	c-0.265,0.079-0.534,0.186-0.763,0.337c-1.923,1.269-2.79,3.221-3.405,5.327c-0.106,0.365-0.011,0.576,0.446,0.627
	C58.088,29.224,61.213,26.494,61.293,24.08z" class="ScDLPnzE_2"></path>
<path opacity="0.8" fill-rule="evenodd" clip-rule="evenodd" fill="none" stroke="#FFFFFF" stroke-width="2" stroke-miterlimit="10" d="
	M23.736,6.706c-3.958,0.039-7.708,0.817-10.824,3.462c-2.204,1.871-3.126,4.208-2.208,7.064c0.182,0.567,0.099,1.015-0.203,1.464
	c-1.06,1.577-2.541,2.504-4.407,2.821c-0.455,0.077-0.854-0.09-1.256-0.299c-3.428-1.783-4.758-5.92-3.175-9.85
	c1.314-3.262,3.747-5.488,6.831-6.916c8.017-3.711,16.342-4.513,24.857-2.006c3.233,0.952,6.078,2.679,8.062,5.526
	c2.91,4.176,2.203,10.276-1.619,14.318c-2.142,2.265-4.783,3.712-7.725,4.633c-0.796,0.249-1.017,0.449-0.471,1.258
	c1.104,1.633,1.564,3.574,2.314,5.378c0.895,2.148,1.898,4.228,3.59,5.893c0.577,0.568,1.197,1.102,1.961,1.345
	c1.298,0.414,1.527,1.422,1.509,2.544c-0.009,0.587-0.154,1.193-0.347,1.753c-1.146,3.314-3.984,4.419-7.065,2.766
	c-1.549-0.832-2.746-2.047-3.724-3.492c-2.132-3.147-3.331-6.708-4.556-10.258c-0.546-1.584-1.074-3.172-1.758-4.708
	c-0.446-1.002-1.229-0.942-2.089-0.957c-0.916-0.015-0.839,0.705-1.006,1.222c-1.135,3.534-2.264,7.072-3.137,10.682
	c-0.219,0.902-0.715,1.381-1.546,1.619c-1.995,0.572-4.015,0.702-6.038,0.213c-1.593-0.385-1.937-1.048-1.461-2.604
	c2.123-6.947,4.034-13.959,6.462-20.81c0.909-2.565,2.058-5.032,3.639-7.263c1.811-2.555,5.688-3.254,8.343-1.577
	c0.566,0.358,0.603,0.688,0.292,1.272c-1.904,3.574-3.15,7.415-4.47,11.225c-0.137,0.396-0.403,0.839,0.376,0.939
	c3.713,0.477,8.888-2.594,10.324-6.154c1.975-4.894-0.475-9.069-6.023-10.258c-0.468-0.101-0.941-0.208-1.417-0.236
	C25.097,6.676,24.416,6.706,23.736,6.706z" class="ScDLPnzE_3"></path>
<path opacity="0.8" fill-rule="evenodd" clip-rule="evenodd" fill="none" stroke="#FFFFFF" stroke-width="2" stroke-miterlimit="10" d="
	M344.253,7.761c-0.012,3.838-3.938,6.722-7.59,5.576c-1.906-0.598-3.017-2.432-2.726-4.499c0.487-3.462,3.895-5.793,7.289-4.988
	C343.122,4.3,344.259,5.769,344.253,7.761z" class="ScDLPnzE_4"></path>
<path opacity="0.8" fill-rule="evenodd" clip-rule="evenodd" fill="none" stroke="#FFFFFF" stroke-width="2" stroke-miterlimit="10" d="
	M293.972,20.758c-0.095,0.071-0.135,0.286-0.296,0.16c-0.04-0.031,0.057-0.237,0.091-0.362
	C293.835,20.623,293.902,20.69,293.972,20.758z" class="ScDLPnzE_5"></path>
<path opacity="0.8" fill-rule="evenodd" clip-rule="evenodd" fill="none" stroke="#FFFFFF" stroke-width="2" stroke-miterlimit="10" d="
	M172.402,41.277" class="ScDLPnzE_6"></path>
<style data-made-with="vivus-instant">.ScDLPnzE_0{stroke-dasharray:625 627;stroke-dashoffset:626;animation:ScDLPnzE_draw_0 9400ms linear 0ms infinite,ScDLPnzE_fade 9400ms linear 0ms infinite;}.ScDLPnzE_1{stroke-dasharray:654 656;stroke-dashoffset:655;animation:ScDLPnzE_draw_1 9400ms linear 0ms infinite,ScDLPnzE_fade 9400ms linear 0ms infinite;}.ScDLPnzE_2{stroke-dasharray:488 490;stroke-dashoffset:489;animation:ScDLPnzE_draw_2 9400ms linear 0ms infinite,ScDLPnzE_fade 9400ms linear 0ms infinite;}.ScDLPnzE_3{stroke-dasharray:274 276;stroke-dashoffset:275;animation:ScDLPnzE_draw_3 9400ms linear 0ms infinite,ScDLPnzE_fade 9400ms linear 0ms infinite;}.ScDLPnzE_4{stroke-dasharray:32 34;stroke-dashoffset:33;animation:ScDLPnzE_draw_4 9400ms linear 0ms infinite,ScDLPnzE_fade 9400ms linear 0ms infinite;}.ScDLPnzE_5{stroke-dasharray:2 4;stroke-dashoffset:3;animation:ScDLPnzE_draw_5 9400ms linear 0ms infinite,ScDLPnzE_fade 9400ms linear 0ms infinite;}.ScDLPnzE_6{stroke-dasharray:0 2;stroke-dashoffset:1;animation:ScDLPnzE_draw_6 9400ms linear 0ms infinite,ScDLPnzE_fade 9400ms linear 0ms infinite;}@keyframes ScDLPnzE_draw{100%{stroke-dashoffset:0;}}@keyframes ScDLPnzE_fade{0%{stroke-opacity:1;}95.74468085106383%{stroke-opacity:1;}100%{stroke-opacity:0;}}@keyframes ScDLPnzE_draw_0{15.957446808510639%{stroke-dashoffset: 626}47.87234042553192%{ stroke-dashoffset: 0;}100%{ stroke-dashoffset: 0;}}@keyframes ScDLPnzE_draw_1{18.617021276595743%{stroke-dashoffset: 655}50.53191489361703%{ stroke-dashoffset: 0;}100%{ stroke-dashoffset: 0;}}@keyframes ScDLPnzE_draw_2{21.27659574468085%{stroke-dashoffset: 489}53.191489361702125%{ stroke-dashoffset: 0;}100%{ stroke-dashoffset: 0;}}@keyframes ScDLPnzE_draw_3{23.93617021276596%{stroke-dashoffset: 275}55.85106382978723%{ stroke-dashoffset: 0;}100%{ stroke-dashoffset: 0;}}@keyframes ScDLPnzE_draw_4{26.595744680851062%{stroke-dashoffset: 33}58.51063829787234%{ stroke-dashoffset: 0;}100%{ stroke-dashoffset: 0;}}@keyframes ScDLPnzE_draw_5{29.25531914893617%{stroke-dashoffset: 3}61.170212765957444%{ stroke-dashoffset: 0;}100%{ stroke-dashoffset: 0;}}@keyframes ScDLPnzE_draw_6{31.914893617021278%{stroke-dashoffset: 1}63.829787234042556%{ stroke-dashoffset: 0;}100%{ stroke-dashoffset: 0;}}</style></svg>
