<?xml version="1.0" encoding="utf-8"?>
<!-- Generator: Adobe Illustrator 16.0.0, SVG Export Plug-In . SVG Version: 6.00 Build 0)  -->
<!DOCTYPE svg PUBLIC "-//W3C//DTD SVG 1.1//EN" "http://www.w3.org/Graphics/SVG/1.1/DTD/svg11.dtd">
<svg version="1.1" id="圖層_1" xmlns="http://www.w3.org/2000/svg" xmlns:xlink="http://www.w3.org/1999/xlink" x="0px" y="0px"
	 width="120.595px" height="128.782px" viewBox="0 0 120.595 128.782" enable-background="new 0 0 120.595 128.782"
	 xml:space="preserve">
<g>
	<g>
		<path fill="#E67965" d="M87.721,38.307c7.836-1.829,16.49,0.773,22.071,6.563c5.568,5.562,7.764,13.755,7.327,21.457
			c-0.536,9.532-5.23,18.317-11.164,25.596c-5.679,6.687-12.066,12.767-18.925,18.235c-6.718,5.364-13.66,10.497-21.083,14.848
			c-4.109,2.408-8.845,4.399-13.705,3.596c-8.108-1.21-14.57-6.758-20.225-12.298c-7.649-7.826-14.32-16.654-19.288-26.422
			C9.54,83.82,7.316,77.278,6.12,70.539C4.763,63.23,4.393,55.666,5.658,48.314c1.028-5.999,4.217-11.882,9.521-15.104
			c6.259-4.014,14.381-5.36,21.446-2.776c8.304,2.943,14.679,9.67,19.128,17.082c2.775,4.948,5.24,10.105,6.962,15.527
			c2.004-4.736,4.403-9.369,7.614-13.404C74.938,44.394,80.763,39.804,87.721,38.307z M34.801,36.551
			c-3.604-0.33-7.298,0.678-10.266,2.736c-4.087,2.824-7.198,7.027-8.679,11.772c-0.614,2.082-1.679,4.22-1.317,6.444
			c0.316,1.539,2.561,1.587,3.167,0.229c1.928-3.576,2.778-7.693,5.175-11.035c2.537-3.641,6.545-6.815,11.198-6.646
			c1.404-0.2,3.608,0.685,4.277-1.026C38.368,37.211,36.218,36.748,34.801,36.551z M15.153,60.127
			c-1.441,0.075-2.543,1.691-1.965,3.055c0.486,1.584,2.855,1.943,3.817,0.61C18.323,62.417,17.02,59.931,15.153,60.127z"/>
	</g>
	<g>
		<g>
			<path fill="#070405" d="M62.452,0.938c4.117-1.768,9.313-1.064,12.378,2.341c3.756,4.159,5.396,9.727,6.62,15.078
				c1.638,7.021,1.38,14.342,0.11,21.407c6.764-2.95,14.64-3.467,21.597-0.858c5.836,1.863,10.812,6.291,13.162,11.97
				c3.281,7.775,3.225,16.713,0.827,24.725c-3.779,10.978-11.803,19.882-20.647,27.134c2.985,0.022,5.972,0.074,8.959,0.159
				c1.879-3.951,5.638-7.232,10.021-7.977c1.935-0.38,4.476,0.267,4.973,2.436c0.729,2.88-1.43,5.495-3.899,6.669
				c1.55,0.816,2.666,2.741,1.861,4.456c-1.08,2.268-4.09,2.734-6.252,1.892c-2.852-1.137-5.452-3.224-6.813-6.019
				c-3.687,0.418-7.409,0.143-11.103,0.296c-7.438,5.61-14.925,11.231-23.04,15.842c-5.292,2.834-10.673,5.548-16.306,7.646
				c-0.77,0.262-1.653,0.659-2.413,0.124c-8.89-3.935-17.269-9.236-24.18-16.115c-6.665-6.527-12.565-13.85-17.349-21.866
				C6.031,82.088,2.147,73.143,0.57,63.674c-1.201-7.289-0.62-15.089,2.879-21.696c4.139-8.148,12.166-14.315,21.221-15.825
				c6.122-1.089,12.474,0.287,17.919,3.184c0.884-4.767,3.24-9.089,5.468-13.343C51.536,9.978,55.627,3.486,62.452,0.938z
				 M61.747,3.005c-4.711,2.353-7.772,6.857-10.479,11.202c-2.937,5.051-5.981,10.172-7.398,15.895
				c1.197,0.731,2.355,1.534,3.476,2.38c1.76-5.328,4.507-10.28,7.45-15.032c2.259-3.348,4.824-6.974,8.804-8.346
				c2.894-1.07,6.308-0.059,8.285,2.283c3.288,3.755,4.265,8.894,4.641,13.725c0.477,6.381,0.022,12.835-1.531,19.05
				c1.649-1.198,3.233-2.501,5.007-3.518c0.462-3.027,0.866-6.064,1.031-9.124c0.433-6.355-0.727-12.736-2.729-18.756
				c-1.343-3.634-2.909-7.533-6.212-9.828C69.014,0.785,64.908,1.387,61.747,3.005z M66.111,10.104
				c-3.187,0.194-5.655,2.6-7.532,4.974c-4.237,5.576-7.166,11.983-10.204,18.253c5.404,4.617,9.212,10.94,11.086,17.773
				c1.638,5.473,1.925,11.202,2.542,16.848c1.946-8.001,5.52-15.764,11.171-21.834c1.229-5.315,2.123-10.744,2.029-16.213
				c-0.087-5.444-0.396-11.192-3.201-16.017C70.826,11.759,68.656,9.99,66.111,10.104z M78.324,43.807
				c-4.651,3.457-8.19,8.25-10.786,13.387c-2.368,4.822-3.576,10.089-5.184,15.178c-0.983,0.33-0.956-1.004-1.141-1.586
				c-1.105-7.106-1.273-14.424-3.695-21.262c-2.566-7.687-7.837-14.519-14.908-18.553c-5.682-3.474-12.708-4.724-19.208-3.19
				c-7.918,1.79-14.759,7.37-18.488,14.532c-3.12,5.762-3.796,12.562-3.016,18.988c1.119,8.431,4.214,16.496,8.323,23.905
				c5.116,9.275,11.477,17.894,19.065,25.302c6.8,6.942,15.158,12.108,23.718,16.592c6.223-2.073,12.04-5.223,17.824-8.288
				c7.328-4.266,14.286-9.146,21.017-14.3c-5.296-0.139-10.588-0.421-15.89-0.41c-0.934-0.034-1.945,0.046-2.726-0.563
				c0.013-3.056-0.947-6.181,0.059-9.177c0.222,0.124,0.67,0.37,0.898,0.491c0.862,2.432,0.751,5.063,0.95,7.603
				c1.575-0.059,3.146-0.107,4.72-0.145c-0.445-2.141-0.969-4.313-0.802-6.512c0.039-0.866,0.45-1.108,1.23-0.718
				c0.808,2.363,1.194,4.843,1.455,7.319c4.121,0.152,8.248,0.357,12.371,0.208c7.959-6.028,15.031-13.584,19.528-22.581
				c3.887-7.864,4.571-17.24,2.092-25.636c-1.514-5.141-4.966-9.756-9.771-12.241C97.428,37.554,86.219,38.1,78.324,43.807z
				 M106.576,103.945c1.615,2.07,3.698,3.832,6.145,4.843c1.556,0.55,3.767,0.363,4.602-1.275c0.382-2.439-2.736-3.497-4.578-2.459
				c0.097,1.795,1.868,0.733,2.935,0.588c-0.01,1.865-2.896,2.731-3.736,0.933c-0.626-0.819-0.169-1.729,0.293-2.491
				c-1.026-1.391-0.729-3.809,0.954-4.524c1.104-0.458,3.242,0.641,2.094,1.944c-0.384-0.156-1.156-0.472-1.54-0.629
				c-0.939,0.484-0.605,1.621-0.367,2.411c2.108-0.182,4.328-1.093,5.419-3.009c1.064-1.473,0.22-4.239-1.916-3.86
				C112.299,96.708,109.157,100.571,106.576,103.945z"/>
		</g>
		<path fill="#070405" d="M56.148,80.079c2.613-1.937,6.462-1.72,8.96,0.305c4.841,3.946,4.073,13.3-2.277,15.27
			c1.166,4.777,2.065,9.649,2.483,14.556c0.242,1.077-1.06,1.39-1.858,1.317c-3.9-0.095-7.798-0.418-11.705-0.477
			c-0.804-0.007-0.506-1.144-0.313-1.599c1.529-4.857,2.698-9.824,4.429-14.614c-1.465-1.118-2.935-2.456-3.37-4.325
			C51.658,86.739,53.005,82.409,56.148,80.079z"/>
	</g>
</g>
</svg>
