<svg xmlns="http://www.w3.org/2000/svg" width="411.103" height="58.916"><switch><g><path fill-rule="evenodd" clip-rule="evenodd" fill="#FEFEFE" d="M21.926.023c-4.31.139-8.514.809-12.516 2.46C5.615 4.049 2.353 6.245.7 10.232c-1.629 3.932-.339 8.034 3.087 9.879.478.257.943.417 1.484.312 1.64-.316 2.976-1.143 4-2.448.419-.535.689-1.088.432-1.872-.903-2.752.008-5.022 2.072-6.898 1.951-1.774 4.322-2.708 6.865-3.21 3.303-.653 6.598-.772 9.766.63 2.49 1.103 4.312 2.839 4.489 5.713.148 2.409-.651 4.575-2.319 6.358-2.2 2.352-5.031 3.276-8.15 3.564-.978.09-1.196-.148-.854-1.11 1.34-3.762 2.567-7.567 4.457-11.105.299-.56.18-.858-.312-1.178-2.606-1.695-6.551-.996-8.352 1.543-1.583 2.23-2.735 4.697-3.646 7.263-2.484 7.002-4.415 14.178-6.612 21.271-.345 1.113.201 1.685 1.149 1.991 2.331.753 4.642.571 6.933-.212.705-.241.929-.8 1.092-1.446.921-3.64 2.078-7.21 3.158-10.804.25-.83.6-1.137 1.484-1.117.799.019 1.3.287 1.588.988.439 1.071.898 2.136 1.274 3.229 1.09 3.172 2.11 6.374 3.655 9.365 1.206 2.334 2.652 4.476 5.035 5.797 2.439 1.352 4.472 1.103 6.053-.76.911-1.073 1.419-2.332 1.456-3.726.023-.87-.028-1.889-.992-2.27-2.717-1.075-4.086-3.347-5.313-5.759-1.124-2.209-1.597-4.713-2.92-6.815-.706-1.121-.417-1.357.688-1.683 1.963-.579 3.751-1.561 5.417-2.769 6.241-4.525 8.654-15.135-1.566-20.359C31.083.439 26.577-.128 21.926.023zM343.257 6.675c.003-1.993-1.137-3.459-3.033-3.902-3.401-.793-6.804 1.542-7.28 4.997-.283 2.05.844 3.948 2.742 4.489 3.192.91 7.476-1.098 7.571-5.584z"/><path fill-rule="evenodd" clip-rule="evenodd" fill="#E67966" d="M21.926.023c4.65-.151 9.156.417 13.374 2.572 10.221 5.224 7.808 15.833 1.566 20.359-1.666 1.208-3.454 2.189-5.417 2.769-1.105.326-1.393.563-.688 1.683 1.324 2.102 1.797 4.606 2.92 6.815 1.227 2.412 2.596 4.685 5.313 5.759.964.381 1.015 1.4.992 2.27-.037 1.394-.545 2.653-1.456 3.726-1.581 1.862-3.614 2.111-6.053.76-2.383-1.321-3.829-3.463-5.035-5.797-1.545-2.991-2.565-6.192-3.655-9.365-.376-1.093-.835-2.158-1.274-3.229-.288-.701-.789-.969-1.588-.988-.884-.02-1.234.288-1.484 1.117-1.08 3.594-2.237 7.164-3.158 10.804-.164.646-.388 1.205-1.092 1.446-2.292.784-4.603.965-6.933.212-.948-.306-1.494-.877-1.149-1.991 2.197-7.092 4.127-14.269 6.612-21.271.911-2.566 2.063-5.032 3.646-7.263 1.801-2.539 5.746-3.238 8.352-1.543.491.319.61.618.312 1.178-1.89 3.538-3.116 7.343-4.457 11.105-.343.961-.124 1.2.854 1.11 3.119-.288 5.951-1.212 8.15-3.564 1.667-1.783 2.467-3.949 2.319-6.358-.177-2.874-1.999-4.61-4.489-5.713-3.168-1.403-6.463-1.283-9.766-.63-2.542.502-4.914 1.436-6.865 3.21-2.063 1.876-2.975 4.146-2.072 6.898.257.783-.013 1.337-.432 1.872-1.023 1.305-2.359 2.131-4 2.448-.542.104-1.007-.055-1.484-.312C.362 18.266-.928 14.165.702 10.233c1.653-3.988 4.915-6.183 8.71-7.749 4-1.652 8.204-2.322 12.514-2.461zM343.257 6.675c-.096 4.485-4.379 6.494-7.571 5.584-1.898-.541-3.025-2.439-2.742-4.489.477-3.455 3.879-5.791 7.28-4.997 1.897.443 3.036 1.909 3.033 3.902z"/><path fill="#FEFEFE" d="M292.684 19.843c.164.122.199-.09.291-.165-.066-.065-.135-.13-.201-.196-.033.125-.128.332-.09.361z"/><path fill="#E67966" d="M410.149 29.165c-.82-.488-1.418-.443-1.917.547-1.052 2.086-2.429 3.95-4.296 5.398-.751.582-1.592 1.433-2.554.894-.977-.547-.81-1.753-.722-2.733.18-1.989.545-3.952 1.009-5.898 1.948-8.163 4.661-16.102 7.07-24.128.349-1.162.038-1.752-.974-2.149-2.294-.899-4.67-.973-7.075-.641-.741.102-1.143.525-1.355 1.298-1.155 4.194-2.566 8.317-3.559 12.556-.253 1.082-.7 1.418-1.854 1.406-8.149-.086-14.732 4.34-17.768 11.857a21.937 21.937 0 01-3.182 5.47c-.875 1.101-1.852 2.116-3.137 2.742-1.583.771-2.345.282-2.396-1.471-.045-1.547.428-2.997.834-4.457.769-2.766 1.836-5.45 2.198-8.326.342-2.718-.847-4.898-3.098-5.543a7.534 7.534 0 00-3.791-.105c-2.522.568-4.617 1.948-6.682 3.402-.261.184-.48.488-.961.479.145-.484.25-.862.37-1.235.501-1.555.355-1.91-1.184-2.486-1.921-.719-3.902-.731-5.909-.436-.984.145-1.495.623-1.777 1.616-1.091 3.839-2.166 7.688-3.455 11.463-1.111 3.252-3.233 5.777-6.443 7.198-1.38.61-1.957.176-1.998-1.299-.02-.677.009-1.351.153-2.026 1.031-4.811 2.697-9.44 4.07-14.151.345-1.185-.015-1.73-.986-2.121-2.168-.871-4.417-1.021-6.71-.692-.872.125-1.364.565-1.614 1.49-1.029 3.814-2.06 7.633-3.264 11.396-.976 3.053-2.891 5.493-5.62 7.23-.574.365-1.254.665-1.908.199-.619-.441-.694-1.169-.615-1.847.121-1.029.277-2.063.546-3.062.755-2.813 1.691-5.582 2.344-8.417.999-4.344-1.163-6.904-5.633-6.879-3.046.017-5.664 1.206-8.066 2.973-.488.36-.963.739-1.576 1.211-.168-2.242-1.117-3.591-3.181-4.026a7.12 7.12 0 00-2.968.008c-2.856.596-5.178 2.245-7.543 3.81-.092.075-.127.287-.291.165-.038-.029.057-.235.09-.36.078-.309.143-.621.239-.924.493-1.56.337-1.946-1.196-2.494-2.002-.716-4.054-.812-6.139-.4-.791.156-1.219.588-1.459 1.371-2.26 7.326-4.264 14.723-6.238 22.128-.309 1.16.095 1.777 1.143 2.076 2.401.683 4.804.643 7.197-.063.725-.214 1.082-.68 1.25-1.436.98-4.403 2.174-8.754 3.264-13.129.525-2.108 1.863-3.14 3.609-3.948.701-.324 1.523-.602 2.17-.094.657.515.317 1.325.151 2.019-1.163 4.852-2.334 9.701-3.493 14.554-.329 1.375-.131 1.794 1.252 2.173 2.159.592 4.345.471 6.527.063 1.07-.2 1.613-.777 1.846-1.872.98-4.607 2.155-9.17 3.287-13.742.536-2.17 2.156-2.968 3.967-3.515 1.281-.388 2.059.492 1.813 1.854-.142.785-.364 1.554-.534 2.334-.688 3.157-1.741 6.233-2.111 9.46-.333 2.91 1.077 4.945 3.913 5.514 3.545.711 6.737-.195 9.594-2.333.912-.682 1.731-1.488 2.617-2.258.092.157.181.25.204.358.61 2.78 1.577 3.765 4.292 4.241 3.092.542 5.962-.139 8.611-1.752 1.012-.616 1.935-1.375 2.944-2.103.17.506-.053.904-.146 1.312-.409 1.766-.226 2.117 1.61 2.556 2.054.492 4.117.383 6.174-.062 1.005-.217 1.538-.764 1.778-1.808.992-4.317 2.106-8.606 3.187-12.902.49-1.95 1.682-2.972 3.304-3.764.836-.409 1.816-.91 2.604-.32.805.602.328 1.64.137 2.472-.763 3.306-1.64 6.586-2.33 9.906-.825 3.971 1.202 6.439 5.243 6.662 4.053.223 7.281-1.438 10.042-4.242.516-.524 1.043-1.037 1.681-1.669.532 2.802 1.811 4.835 4.512 5.546 3.527.928 6.724.241 9.466-2.258 1.244-1.134 2.163-2.522 3.077-4.001.273.463.13.86.154 1.234.227 3.446 2.167 5.424 5.325 5.386 2.225-.027 4.232-.773 6.079-1.961 3.288-2.114 5.496-5.173 7.438-8.483.622-1.057.107-1.539-.677-2.006zm-17.157-5.314c-1.022 3.582-2.17 7.117-4.607 10.049-.406.489-.843.973-1.344 1.357-.655.503-1.371 1.091-2.277.63-.928-.471-.982-1.378-1.025-2.323 1.033-4.651 2.276-9.183 7.074-11.544.818-.403 1.917-.989 2.58-.454.544.439-.182 1.515-.401 2.285z"/><path fill-rule="evenodd" clip-rule="evenodd" fill="#FEFEFE" d="M292.975 19.678c-.092.075-.127.287-.291.165-.038-.029.057-.235.09-.36l.201.195z"/><path fill="none" d="M171.65 39.951c-.002-.006-.001-.012-.004-.018l-.008.003.012.015z"/><path fill="#E67966" d="M270.989 29.125c-.556-.364-1.145-.592-1.62.213-.465.79-.953 1.579-1.528 2.289-1.948 2.404-4.306 4.191-7.507 4.466-1.962.169-2.639-.737-2.118-2.646.657-2.405 2.098-4.382 3.512-6.367 2.16-3.031 2.019-4.808-.628-7.471-1.471-1.48-3.162-2.698-4.784-3.995-.766-.613-1.096-1.215-.875-2.232.282-1.306.072-2.599-1.102-3.444-1.15-.828-2.437-.674-3.656-.131-2.877 1.28-3.765 4.34-2.226 7.525.219.453.575.84.383 1.442-1.611 5.055-3.758 9.852-6.925 14.133-.997 1.348-2.202 2.536-3.79 3.239-.807.357-1.234.094-1.301-.758-.073-.921.019-1.838.195-2.743.939-4.829 2.516-9.489 3.814-14.222.334-1.217-.042-1.813-1.075-2.235-2.061-.842-4.192-.919-6.36-.579-.89.14-1.313.659-1.576 1.548-1.13 3.828-2.256 7.662-3.57 11.428-.914 2.617-2.3 5.018-4.571 6.76-.548.42-1.208.795-1.876.381-.635-.393-.487-1.123-.442-1.76.011-.158.064-.312.097-.469 1.076-5.081 2.515-10.066 3.922-15.06.424-1.506.191-1.976-1.311-2.483-1.899-.642-3.855-.624-5.813-.398-1.003.116-1.578.669-1.872 1.716-1.065 3.805-2.225 7.583-3.36 11.368-.792 2.641-2.524 4.497-4.937 5.73-.917.47-1.913.733-3.057.462.59-1.291 1.279-2.458 1.732-3.735.469-1.324.825-2.668.995-4.061.64-5.247-1.734-10.067-7.822-11.114-8.074-1.388-15.638 3.04-18.076 10.929-.92 2.979-2.437 5.538-4.193 8.006-1.561 2.192-3.36 4.162-6.024 5.073.002.006.001.012.004.018l-.028.016c-.009.022-.017.046-.033.063-.01.011-.046-.003-.071-.006l.104-.058c.004-.011.011-.02.016-.03l.008-.003c-.148-.402.029-.768.132-1.142 1.908-6.886 3.8-13.776 5.741-20.652.248-.876.031-1.397-.741-1.739-2.264-1.003-4.611-1.225-7.022-.672-.72.166-1.112.622-1.306 1.382a111.51 111.51 0 01-1.613 5.64c-1.055 3.39-1.956 6.847-3.982 9.845-.786 1.163-1.602 2.299-2.862 3.011-.469.265-1 .452-1.481.16-.494-.3-.52-.873-.458-1.4.075-.633.164-1.27.311-1.889 1.14-4.777 2.289-9.553 3.707-14.255.353-1.171-.033-1.731-1.035-2.115-2.036-.778-4.136-.815-6.257-.516-.917.129-1.417.642-1.68 1.598-.911 3.309-1.972 6.577-2.89 9.884-.767 2.764-1.729 5.485-1.943 8.382-.241 3.258 1.34 5.408 4.551 5.978 3.865.686 7.174-.517 9.994-3.167.509-.479.927-1.054 1.387-1.584l.366.252-1.931 5.236c-.158.428-.548.393-.894.466-1.914.403-3.83.796-5.693 1.405-3.931 1.284-6.941 3.43-7.523 7.912-.294 2.268.72 4.43 2.696 5.59 4.961 2.911 12.446.996 15.375-3.944 1.5-2.528 2.372-5.318 3.287-8.084.203-.614.468-1.023 1.1-1.281 3.379-1.378 6.083-3.635 8.284-6.52.546-.716 1.08-1.442 1.699-2.271.143.284.227.41.272.549.957 2.951 3.103 4.629 6.007 5.282 4.853 1.091 9.458.392 13.633-2.416.747-.503 1.442-.708 2.327-.638 2.613.208 5.125-.189 7.323-1.708.89-.615 1.075-.38 1.191.559.328 2.659 1.964 4.225 4.623 4.544 4.495.541 8.152-.997 11.042-4.438.595-.708 1.16-1.442 1.851-2.304 0 .95-.035 1.671.006 2.388.17 2.999 2.266 4.749 5.195 4.408 2.718-.316 4.875-1.704 6.786-3.529 2.864-2.737 5.011-5.993 6.753-9.534 1.236-2.512 2.36-5.066 3.229-7.731.089-.272-.015-.962.698-.597 1.32.676 1.961 2.635 1.25 3.947-.399.737-.876 1.431-1.307 2.151-1.395 2.338-2.714 4.708-3.286 7.413-.836 3.959 1.124 6.875 5.1 7.619 2 .375 3.984.264 5.949-.16 5.984-1.291 9.627-5.359 12.322-10.512.508-.954-.378-1.241-.938-1.608zM161.248 47.559c-.47 1.638-.725 3.371-2.003 4.662-.52.524-1.11.907-1.878.929-1.045.023-1.646-.654-1.486-1.677.274-1.755 3.264-4.333 4.997-4.328.322.001.456.114.37.414zm3.302-11.006c-.018-.027-.051-.056-.049-.08.003-.025.042-.045.064-.068l.053.081a.715.715 0 00-.068.067zm32.52-6.266c-.136.472-.269.676-.74.847-1.508.549-2.229 1.931-1.863 3.535.158.693-.065.946-.555 1.215-1.83 1.007-3.625.074-3.592-1.993.06-3.859 1.131-7.467 3.101-10.796.041-.068.101-.127.148-.191.994-1.345 1.927-1.929 2.967-1.59 1.023.334 1.276 1.337 1.276 3.099v.48a19.13 19.13 0 01-.742 5.394z"/><path fill="#E67966" d="M164.618 36.484a1.461 1.461 0 00-.067.069c.022-.023.044-.047.069-.067l-.053-.081c.016.027.034.053.051.079z"/><path fill="#FEFCFC" d="M197.813 24.892c0 1.855-.482 3.629-.992 5.395.51-1.766.992-3.54.992-5.395v-.479.479z"/><path fill="#FEFEFE" d="M164.566 36.405c-.023.022-.062.043-.064.068-.002.024.031.053.049.08.022-.023.044-.047.067-.069l-.052-.079zM171.622 39.967l.028-.016-.012-.014c-.005.01-.012.019-.016.03zM171.589 40.03c.016-.017.024-.041.033-.063a5.412 5.412 0 00-.104.058c.024.002.061.016.071.005z"/><path fill="#E67966" d="M139.852 29.095c-1.068-.625-1.453-.021-1.905.817-1.226 2.274-2.739 4.332-4.963 5.742-1.584 1.005-2.376.572-2.458-1.3-.1-2.302.402-4.53.919-6.747 1.918-8.21 4.683-16.176 7.052-24.256.423-1.441.271-1.805-1.151-2.341-2.184-.823-4.453-.855-6.736-.59-.847.098-1.255.612-1.491 1.461-1.195 4.307-2.485 8.587-3.68 12.895-.202.73-.491.963-1.22.924a18.09 18.09 0 00-4.88.41c-6.712 1.475-10.939 5.752-13.544 11.909-1.356 3.206-3.406 5.878-6.469 7.634-1.801 1.033-2.854.333-2.767-1.738.008-.198.052-.395.078-.593.289-2.188.935-4.294 1.632-6.371.359-1.069-.006-1.569-.875-1.978-1.729-.813-3.533-1.231-5.456-1.11-.966.061-1.586.417-1.964 1.408-1.098 2.875-2.372 5.677-4.107 8.24-.563.831-1.188 1.622-2.059 2.149-1.138.688-2.097.258-2.474-1.02-.272-.926-.115-1.827.058-2.728.591-3.087 1.839-5.811 4.092-8.099 3.666-3.723 9.674-2.727 13.211-.413 1.147.751 1.867.563 2.669-.29.301-.32.587-.656.847-1.01 1.342-1.83 1.256-2.517-.673-3.731-4.085-2.572-8.649-3.23-13.27-2.479-7.39 1.202-12.523 5.523-15.394 12.431-2.461 5.924-9.268 9.28-15.409 7.489-1.578-.46-2.816-1.324-3.377-2.946-.266-.771-.144-1.258.845-1.057.907.185 1.83.206 2.749.151 3.481-.206 6.761-.991 9.151-3.771 1.815-2.112 2.685-4.58 1.793-7.344-.889-2.752-3.071-4.053-5.758-4.678-1.184-.275-2.379-.265-3.578-.245-7.727.13-13.667 5.183-14.991 12.748-.873 4.985 1.083 9.554 5.482 11.411 6.509 2.747 12.93 2.423 18.912-1.712 1.114-.771 1.986-1.818 3.046-2.755.107.28.206.459.244.65.602 2.983 2.477 4.682 5.409 5.184 4.443.76 7.893-.902 10.472-4.516.445-.624.854-1.274 1.445-2.159 0 .977-.022 1.612.003 2.246.138 3.443 2.167 5.066 5.558 4.509 3.469-.571 6.22-2.382 8.616-4.85.311-.319.51-.828 1.125-.836.59 2.978 2.145 5.06 5.284 5.601 3.864.666 7.106-.476 9.654-3.463.74-.868 1.366-1.833 2.155-2.903.104.877.169 1.551.266 2.22.383 2.635 2.264 4.292 4.915 4.32 1.88.021 3.629-.49 5.28-1.366 3.789-2.01 6.267-5.254 8.331-8.879.695-1.223.542-1.58-.644-2.275zm-85.56-1.771c.672-2.306 1.56-4.496 3.897-5.617 1.282-.615 2.125-.065 2.11 1.233-.028 2.41-3.027 5.104-5.485 4.948-.401-.025-.644-.144-.522-.564zm69.041-5.246c-1.135 3.948-2.179 7.932-4.7 11.305-.528.708-1.098 1.381-1.803 1.908-.669.5-1.389 1.042-2.289.572-.875-.456-.902-1.334-.981-2.435.74-3.873 1.99-7.741 5.436-10.473 1.071-.85 2.323-1.39 3.718-1.518.487-.044.792.037.619.641z"/></g></switch></svg>