<?xml version="1.0" encoding="utf-8"?>
<!-- Generator: Adobe Illustrator 16.0.0, SVG Export Plug-In . SVG Version: 6.00 Build 0)  -->
<!DOCTYPE svg PUBLIC "-//W3C//DTD SVG 1.1//EN" "http://www.w3.org/Graphics/SVG/1.1/DTD/svg11.dtd">
<svg version="1.1" id="Layer_1" xmlns="http://www.w3.org/2000/svg" xmlns:xlink="http://www.w3.org/1999/xlink" x="0px" y="0px"
	 width="432px" height="184px" viewBox="0 0 432 184" enable-background="new 0 0 432 184" xml:space="preserve">
<g>
	<defs>
		<rect id="SVGID_1_" width="432" height="184"/>
	</defs>
	<clipPath id="SVGID_2_">
		<use xlink:href="#SVGID_1_"  overflow="visible"/>
	</clipPath>
	<g clip-path="url(#SVGID_2_)">
		<rect y="-48.5" fill="none" width="432" height="288"/>
		<g>
			<defs>
				<rect id="SVGID_3_" y="-48.5" width="432" height="288"/>
			</defs>
			<clipPath id="SVGID_4_">
				<use xlink:href="#SVGID_3_"  overflow="visible"/>
			</clipPath>
			<g clip-path="url(#SVGID_4_)">
				<path fill="#F17C67" d="M-164.332,155.115c40.269-18.688,85.175-30.444,133.472-34.94c15.724-1.45,31.782-2.187,47.729-2.187
					c66.426,0,118.765,12.743,143.918,18.867c6.071,1.479,10.867,2.646,13.972,3.188c7.088,1.201,13.4,1.811,18.754,1.811
					c5.869,0,10.607-0.729,14.083-2.167c2.58-1.069,5.8-3.047,6.492-6.395c0.618-2.993-0.979-6.557-4.618-10.305
					c-2.762-2.794-6.381-5.799-10.212-8.979c-11.584-9.614-26-21.581-28.434-37.675c-1.926-12.26,2.117-20.037,5.849-24.399
					c5.103-5.967,12.907-9.389,21.413-9.389c10.048,0,22.816,5.106,29.864,19.174c4.225-8.857,11.639-14.045,20.327-14.045
					c8.357,0,15.948,4.861,19.812,12.686c5.913,11.977,2.091,28.265-10.487,44.687c-3.786,4.967-7.987,9.627-11.693,13.739
					c-5.069,5.624-9.448,10.48-10.926,14.033c-0.417,0.9-1.247,3.8,0.06,5.936c1.071,1.752,3.385,2.707,6.875,2.839
					c0.301,0.008,0.619,0.013,0.949,0.013c0.003,0,0.006,0,0.009,0c9.906-0.001,26.978-3.961,48.592-8.974
					c24.229-5.619,54.382-12.613,87.332-17.043c18.719-2.516,34.048-3.688,48.241-3.688l0.457,0.001
					c9.171,0.035,17.176,0.586,24.473,1.686c9.307,1.426,17.025,3.8,23.601,7.258l-1.31,2.515
					c-6.315-3.254-13.753-5.469-22.735-6.77c-6.879-0.976-14.364-1.451-22.879-1.451l-1.146,0.003
					c-14.152,0.091-29.47,1.38-48.202,4.057c-33.727,4.875-63.427,11.911-87.291,17.564c-21.737,5.15-38.907,9.218-49.31,9.218
					c-0.31,0-0.616-0.004-0.914-0.011c-6.26-0.206-9.136-2.786-10.448-4.914c-1.993-3.231-1.636-7.444-0.461-9.991
					c1.787-4.325,6.387-9.441,11.714-15.365c3.603-4.006,7.685-8.547,11.388-13.42c11.444-14.99,15.065-29.531,9.938-39.897
					c-3.063-6.193-9.018-10.041-15.538-10.041c-8.436,0-15.181,6.138-18.042,16.418l-2.078,7.471l-2.432-7.374
					c-5.25-15.934-18.354-21.587-27.979-21.587c-7.004,0-13.38,2.755-17.493,7.558c-4.425,5.168-6.071,12.352-4.758,20.773
					c2.14,14.313,15.833,25.714,26.835,34.875c3.888,3.236,7.559,6.294,10.421,9.198c6.01,6.133,6.483,11.264,5.822,14.489
					c-0.87,4.247-4.167,7.748-9.285,9.859c-4.038,1.658-9.353,2.499-15.797,2.499c-5.617,0-12.218-0.642-19.62-1.906
					c-2.979-0.524-7.405-1.609-13.531-3.111c-25.646-6.286-79.011-19.367-146.375-19.367c-14.938,0-29.934,0.651-44.57,1.937
					c-12.153,1.074-23.306,2.47-34.096,4.268c-4.065,0.607-8.158,1.395-12.117,2.156c-1.607,0.31-3.214,0.618-4.822,0.917
					c-1.604,0.362-3.264,0.723-4.924,1.083c-3.88,0.842-7.893,1.712-11.779,2.745c-21.853,5.355-43.682,12.906-64.91,22.45
					L-164.332,155.115z"/>
				<path fill="#F17C67" d="M451.759,114.988c-8.027-1.209-16.153-1.639-24.265-1.67c-16.236-0.029-32.432,1.514-48.507,3.674
					c-63.485,8.535-116.556,26.605-137.124,26.016c-11.038-0.416-9.159-8.648-8.189-10.734c2.702-6.496,13.837-16.33,22.803-28.09
					c36.959-48.255-15.822-73.839-28.475-38.915c-13.633-33.535-61.512-25.661-55.776,10.852
					c3.142,20.778,27.035,34.518,38.262,45.879c8.464,8.717,5.653,15.68-2.349,18.996c-9.092,3.762-23.906,2.09-33.623,0.443
					c-19.416-3.387-98.918-29.662-205.244-19.854c-45.841,4.268-91.221,15.422-133.007,34.814
					c20.988-9.436,42.789-17.053,65.126-22.527c5.557-1.477,11.202-2.588,16.809-3.852c5.651-1.049,11.278-2.229,16.965-3.078
					c11.338-1.889,22.758-3.27,34.205-4.281c105.274-9.242,186.52,17.332,204.839,20.557c10.111,1.729,25.101,3.412,34.638-0.506
					c9.053-3.734,12.435-12.41,2.994-22.043c-11.079-11.242-34.674-24.961-37.647-44.85c-5.595-35.903,41.914-40.98,52.977-7.406
					l0.971,2.943l0.828-2.977c10.019-35.998,62.094-12.343,26.137,34.756c-9.096,11.971-20.029,21.471-22.943,28.521
					c-1.615,3.5-2.016,12.51,9.656,12.895c20.854,0.498,71.518-17.252,137.28-26.758c16.032-2.291,32.189-3.967,48.396-4.07
					c8.098-0.039,16.211,0.324,24.234,1.463c8,1.158,15.961,3.191,23.182,6.912C467.721,118.318,459.763,116.215,451.759,114.988z"
					/>
			</g>
		</g>
	</g>
</g>
<g>
	<path fill="#F17C67" d="M134.379,115.426l1.589-8.942l-24.134-4.288c-3.045-0.541-5.206-1.636-6.483-3.284
		s-1.706-3.659-1.284-6.031c0.108-0.608,0.33-1.205,0.666-1.791c0.334-0.585,0.788-1.182,1.359-1.791s1.154-1.192,1.748-1.748
		c0.595-0.556,1.327-1.234,2.197-2.04l31.537-29.558c2.064-1.946,3.724-3.33,4.977-4.149c1.254-0.818,2.633-1.094,4.14-0.826
		c4.872,0.865,6.813,4.087,5.821,9.663L149.9,97.851l2.066,0.367c2.468,0.438,4.388,1.126,5.758,2.064
		c1.371,0.938,1.854,2.545,1.45,4.82c-0.331,1.858-1.18,3.104-2.549,3.737s-3.271,0.733-5.707,0.301l-2.933-0.521l-1.589,8.942
		c-0.438,2.468-1.31,4.205-2.612,5.214c-1.304,1.008-2.868,1.35-4.695,1.025c-1.795-0.319-3.136-1.194-4.022-2.624
		C134.181,119.746,133.951,117.829,134.379,115.426z M117.209,92.041l20.672,3.674l4.963-27.932L117.209,92.041z"/>
</g>
<g>
	<path fill="#F17C67" d="M316.07,113.289l-1.739-8.915l-24.06,4.692c-3.034,0.594-5.445,0.352-7.232-0.728
		c-1.783-1.078-2.908-2.8-3.369-5.163c-0.117-0.607-0.125-1.244-0.021-1.912c0.099-0.665,0.307-1.386,0.621-2.159
		c0.313-0.774,0.647-1.528,1.001-2.261c0.354-0.732,0.794-1.629,1.315-2.694l18.771-38.934c1.225-2.559,2.275-4.449,3.15-5.664
		c0.873-1.214,2.061-1.968,3.562-2.261c4.858-0.948,7.827,1.358,8.911,6.917l7.238,37.094l2.06-0.401
		c2.46-0.48,4.497-0.531,6.115-0.149c1.616,0.38,2.646,1.706,3.089,3.975c0.36,1.853,0.018,3.319-1.031,4.402
		c-1.05,1.083-2.787,1.864-5.217,2.339l-2.922,0.57l1.738,8.912c0.479,2.46,0.293,4.396-0.559,5.805
		c-0.854,1.41-2.189,2.293-4.012,2.648c-1.789,0.348-3.355,0.015-4.697-0.998C317.44,117.391,316.535,115.686,316.07,113.289z
		 M291.629,97.658l20.605-4.019l-5.43-27.844L291.629,97.658z"/>
</g>
</svg>
