<?xml version="1.0" encoding="utf-8"?>
<!-- Generator: Adobe Illustrator 16.0.0, SVG Export Plug-In . SVG Version: 6.00 Build 0)  -->
<!DOCTYPE svg PUBLIC "-//W3C//DTD SVG 1.1//EN" "http://www.w3.org/Graphics/SVG/1.1/DTD/svg11.dtd">
<svg version="1.1" id="圖層_1" xmlns="http://www.w3.org/2000/svg" xmlns:xlink="http://www.w3.org/1999/xlink" x="0px" y="0px"
	 width="35.529px" height="38.129px" viewBox="0 0 35.529 38.129" enable-background="new 0 0 35.529 38.129" xml:space="preserve">
<g>
	<ellipse opacity="0.35" fill="#C58640" cx="18.047" cy="34.084" rx="11.587" ry="4.045"/>
	<g>
		<path fill="#BB2A22" d="M19.932,21.38c0,0-27.47,2.25-17.912-11.223C11.576-3.313,27.986-3.577,34.324,10.51
			C40.661,24.596,19.932,21.38,19.932,21.38z"/>
		<path fill="#DB955C" d="M35.039,12.417c-1.674,6.824-15.427,4.691-15.427,4.691S3.892,18.395,0.376,13.187
			c-2.588,7.35,8.979,8.337,15.445,8.332c-1.102,2.255-6.401,12.255,1.021,14.224c8.052,2.137,6.791-9.561,4.134-14.064
			c-0.041-0.068-0.081-0.119-0.122-0.184C24.571,21.894,38.202,22.689,35.039,12.417z"/>
		<path fill="#DB955C" d="M35.039,12.417c-1.674,6.824-15.427,4.691-15.427,4.691S3.892,18.395,0.376,13.187
			c-2.588,7.35,8.979,8.337,15.445,8.332c-1.102,2.255-6.401,12.255,1.021,14.224c8.052,2.137,6.791-9.561,4.134-14.064
			c-0.041-0.068-0.081-0.119-0.122-0.184C24.571,21.894,38.202,22.689,35.039,12.417z"/>
		
			<ellipse transform="matrix(0.9977 0.0672 -0.0672 0.9977 0.2186 -1.3603)" fill="#DB955C" cx="20.326" cy="2.568" rx="2.158" ry="1.192"/>
		
			<ellipse transform="matrix(0.9977 0.0679 -0.0679 0.9977 0.2997 -1.6881)" fill="#DB955C" cx="24.982" cy="3.564" rx="1.079" ry="0.738"/>
		
			<ellipse transform="matrix(0.9978 0.067 -0.067 0.9978 0.3858 -1.1281)" fill="#DB955C" cx="17.019" cy="5.191" rx="1.079" ry="0.739"/>
		
			<ellipse transform="matrix(0.9633 0.2685 -0.2685 0.9633 2.9054 -7.0553)" fill="#DB955C" cx="27.245" cy="7.094" rx="1.322" ry="0.905"/>
		
			<ellipse transform="matrix(0.9435 -0.3315 0.3315 0.9435 -1.8735 4.225)" fill="#DB955C" cx="11.449" cy="7.605" rx="1.323" ry="0.906"/>
		
			<ellipse transform="matrix(0.969 -0.247 0.247 0.969 -0.4912 3.288)" fill="#DB955C" cx="12.857" cy="3.602" rx="1.476" ry="0.966"/>
		<g opacity="0.25">
			<g>
				<g>
					<path fill="#DB955C" d="M34.117,18.923c0.323-0.342,0.602-0.724,0.82-1.151c-0.001-0.115-0.004-0.245-0.007-0.398
						c0.029-0.465-0.118-1.086-0.217-1.695c-0.144-0.531-0.374-1.011-0.591-1.386c-0.077,0.1-0.154,0.201-0.238,0.294
						c0.124,0.355,0.246,0.769,0.313,1.198c0.022,0.582,0.111,1.147,0.046,1.585c-0.027,0.432-0.046,0.72-0.046,0.72
						s-0.026,0.287-0.069,0.722C34.126,18.846,34.12,18.887,34.117,18.923z"/>
				</g>
				<g>
					<path fill="#DB955C" d="M29.017,21.317c0.234-0.044,0.467-0.093,0.695-0.146c0.021-0.101,0.044-0.201,0.059-0.293
						c0.093-0.534,0.124-0.893,0.124-0.893s0.015-0.361,0-0.899c-0.01-0.538-0.074-1.246-0.164-1.948
						c-0.013-0.104-0.029-0.204-0.044-0.308c-0.164,0.042-0.327,0.081-0.492,0.118c0.004,0.078,0.007,0.154,0.009,0.234
						c0.069,1.394-0.054,2.752-0.053,2.752c0,0-0.011,0.341-0.063,0.846C29.073,20.945,29.047,21.127,29.017,21.317z"/>
				</g>
				<g>
					<path fill="#DB955C" d="M24.538,20.098c0,0,0.06-1.473,0.066-2.678c-0.15,0.002-0.302,0.004-0.451,0.004
						c-0.186,1.187-0.36,2.624-0.36,2.624s-0.03,0.761-0.051,1.634c0.191,0.006,0.389,0.008,0.587,0.011
						C24.448,20.837,24.538,20.098,24.538,20.098z"/>
				</g>
				<g>
					<path fill="#DB955C" d="M18.782,21.548c0.016-1.081,0.033-2.058,0.033-2.058s-0.017-1.145-0.033-2.329
						c-0.159,0.008-0.337,0.018-0.537,0.026c-0.091,1.177-0.177,2.299-0.177,2.299s0.079,1.058,0.165,2.197
						C18.411,21.606,18.594,21.556,18.782,21.548z"/>
				</g>
				<g>
					<path fill="#DB955C" d="M11.204,19.167c0,0-0.189-1.009-0.338-2.105c-0.186-0.013-0.37-0.031-0.558-0.05
						c0.026,1.165,0.156,2.268,0.156,2.268s0.189,0.975,0.438,2.031c0.193,0.017,0.386,0.033,0.578,0.047
						C11.338,20.223,11.204,19.167,11.204,19.167z"/>
				</g>
				<g>
					<path fill="#DB955C" d="M7.489,20.677c-0.603-1.073-1.002-2.223-1.002-2.223s-0.477-1.047-0.704-2.2
						c-0.188-0.049-0.371-0.101-0.552-0.152c0,0.037,0.002,0.074,0.003,0.112c0.096,1.297,0.558,2.512,0.557,2.513
						c0.001-0.001,0.435,1.01,1.082,1.983c0.237,0.05,0.476,0.099,0.715,0.145C7.555,20.796,7.521,20.74,7.489,20.677z"/>
				</g>
				<g>
					<path fill="#DB955C" d="M2.465,17.281c0,0-0.083-0.298-0.211-0.747c-0.156-0.445-0.22-1.072-0.344-1.692
						c-0.008-0.067-0.015-0.137-0.022-0.205c-0.177-0.12-0.342-0.243-0.5-0.373c-0.005,0.203-0.008,0.411-0.002,0.62
						c0.056,0.653,0.071,1.316,0.195,1.799c0.102,0.489,0.167,0.813,0.167,0.813s0.253,0.743,0.71,1.583
						c0.29,0.178,0.599,0.342,0.926,0.496C2.784,18.478,2.465,17.281,2.465,17.281z"/>
				</g>
				<g>
					<path fill="#DB955C" d="M14.36,17.515c-0.074,0.985-0.148,1.944-0.148,1.944s-0.005,0.965-0.01,1.957c0,0.027,0,0.056,0,0.082
						c0.175,0.005,0.35,0.009,0.519,0.011c0.003-0.019,0.006-0.036,0.008-0.055c0.118-0.995,0.23-1.962,0.23-1.962
						s-0.034-0.978-0.071-1.984c-0.011-0.088-0.021-0.176-0.034-0.263c-0.162-0.002-0.322-0.003-0.489-0.007
						C14.363,17.332,14.36,17.424,14.36,17.515z"/>
				</g>
			</g>
		</g>
		<path opacity="0.15" fill="#DB955C" d="M35.132,12.764c-0.65,2.907-2.978,6.967-8.36,7.368
			c-6.408,0.479-12.671,0.515-20.088-0.896c-3.602-0.685-5.576-2.305-6.662-3.793c0.331,5.301,10.064,6.08,15.8,6.075
			c-0.115,0.236-0.279,0.563-0.467,0.951c1.645,0.486,4.946,2.026,4.897,6.558c-0.057,5.423-5.161,5.246-7.287,1.769
			c0.052,2.238,1.02,4.188,3.877,4.946c8.052,2.137,6.791-9.561,4.134-14.064c-0.029-0.049-0.057-0.087-0.085-0.13l0,0
			c-0.012-0.016-0.023-0.034-0.037-0.054C24.528,21.889,37.874,22.664,35.132,12.764z M16.825,21.316
			c1.032-0.196,2.214-0.091,3.371,0.106C19.406,21.346,18.035,21.247,16.825,21.316z"/>
		<path opacity="0.45" fill="#BB2A22" d="M33.238,8.417c-1.115,5.542-10.095,8.736-22.805,6.405
			c-5.788-1.063-7.957-2.825-8.486-4.56C-7.389,23.616,19.932,21.38,19.932,21.38s0.342,0.052,0.918,0.115l0.004-0.001v0.001
			c3.944,0.424,18.997,1.297,13.471-10.985C33.99,9.771,33.625,9.078,33.238,8.417z"/>
		<g opacity="0.45">
			<g>
				<path fill="#DB955C" d="M15.173,31.228c-0.185,0.076-0.613-0.61-0.809-1.411c-0.181-0.79-0.154-1.612-0.154-1.612
					s0.201-0.795,0.572-1.499c0.376-0.711,0.904-1.299,1.078-1.198c0.184,0.104,0.013,0.825-0.074,1.523
					c-0.084,0.705-0.096,1.379-0.096,1.379s-0.172,0.647-0.271,1.337C15.333,30.425,15.373,31.152,15.173,31.228z"/>
			</g>
		</g>
		<g opacity="0.45">
			<g>
				<path fill="#DB955C" d="M17.073,34.545c-0.068,0.193-0.477,0.183-0.923,0.07c-0.382-0.178-0.755-0.455-0.755-0.455
					s-0.171-0.417-0.245-0.825c-0.018-0.432,0.042-0.83,0.243-0.878c0.2-0.046,0.496,0.211,0.713,0.43
					c0.275,0.188,0.472,0.361,0.472,0.361s0.112,0.219,0.22,0.531C16.951,34.014,17.145,34.352,17.073,34.545z"/>
			</g>
		</g>
		<path opacity="0.45" fill="#BB2A22" d="M5.995,7.467c0.116-0.36,3.735-5.896,11.306-6.752c7.571-0.857,11.105,3.022,11.778,5.42
			c0.673,2.399-2.117,3.272-4.44,2.813c-2.32-0.458-8.848-1.58-10.736-0.569C12.013,9.389,4.461,12.221,5.995,7.467z"/>
		<g opacity="0.8">
			<g opacity="0.45">
				<path fill="#BB2A22" d="M15.321,2.515c0.06,0.2-0.901,0.686-1.834,1.172c-0.932,0.49-1.805,1.011-1.805,1.011
					s-0.23,0.1-0.578,0.252c-0.362,0.135-0.792,0.377-1.243,0.613c-0.877,0.486-1.569,1.23-1.766,1.135
					C7.915,6.616,8.368,5.531,9.215,4.727c0.417-0.382,0.855-0.758,1.212-0.978c0.349-0.238,0.588-0.387,0.588-0.387
					s1.041-0.417,2.104-0.666C14.186,2.449,15.262,2.32,15.321,2.515z"/>
			</g>
			<g opacity="0.45">
				<path fill="#BB2A22" d="M18.766,2.066c-0.105,0.18-0.446,0.227-0.722,0.319c-0.292,0.107-0.541,0.197-0.541,0.197
					s-0.276-0.063-0.6-0.134c-0.32-0.067-0.687-0.138-0.76-0.332c-0.069-0.192,0.198-0.486,0.535-0.701
					c0.334-0.212,0.733-0.324,0.732-0.324c0,0,0.417,0.056,0.799,0.251C18.604,1.542,18.869,1.891,18.766,2.066z"/>
			</g>
		</g>
	</g>
</g>
</svg>
